<svg xmlns="http://www.w3.org/2000/svg" xmlns:xlink="http://www.w3.org/1999/xlink" width="440" height="440"><g transform="translate(-60 -40)"><path d="M480 260c0 110.46-89.54 200-200 200S80 370.46 80 260 169.54 60 280 60s200 89.54 200 200z" fill="#99d2f2"/><use xlink:href="#a" transform="matrix(1,0,0,1,85,65) translate(195 200.4)"/><path d="M108 105c0-2.76 2.24-5 5-5h334c2.76 0 5 2.24 5 5v310c0 2.76-2.24 5-5 5H113c-2.76 0-5-2.24-5-5z" fill="none"/><path d="M217.4 258.72l-93.58-87.04v174.08l93.57-87.04zM290.32 290.72L423.45 167.2h-286.9l133.13 123.52c5.5 5.12 15.14 5.12 20.64 0z" fill="#fff"/><path d="M333.66 267.04l-34.4 32c-5.16 4.8-12.04 7.36-19.26 7.36-7.22 0-14.1-2.56-19.26-7.36l-34.4-32-92.54 85.76h292.4l-92.54-85.76zM342.6 258.72l93.58 87.04V171.68l-93.57 87.04z" fill="#fff"/></g></svg>