<svg xmlns="http://www.w3.org/2000/svg" xmlns:xlink="http://www.w3.org/1999/xlink" width="1360" height="1760"><g transform="translate(0 0)"><path d="M480 260c0 110.46-89.54 200-200 200S80 370.46 80 260 169.54 60 280 60s200 89.54 200 200z" fill="#99d2f2"/><use xlink:href="#a" transform="matrix(1,0,0,1,85,65) translate(195 200.4)"/><path d="M136.25 121c0-2.76 2.24-5 5-5h277.5c2.76 0 5 2.24 5 5v278c0 2.76-2.24 5-5 5h-277.5c-2.76 0-5-2.24-5-5z" fill="none"/><path d="M339.5 284.2c-13.8 0-23.85 12.1-35.64 12.1-12.07 0-65.55-52.43-65.55-65.4 0-13.24 12.1-19.57 12.1-32.82 0-9.8-35.66-68.54-50.6-68.54-14.96 0-50.6 26.5-50.6 50.68 0 70.56 129.94 205.35 211 205.35 22.15 0 50.6-23.62 50.6-50.7 0-9.2-58.06-50.68-71.3-50.68" fill="#fff"/></g></svg>